<svg xmlns="http://www.w3.org/2000/svg" viewBox="0 0 103.3 132.45"><defs><style>.cls-1{fill:#fff;}.cls-2{fill:#0a0140;}</style></defs><g id="Capa_2" data-name="Capa 2"><g id="Capa_1-2" data-name="Capa 1"><path class="cls-1" d="M76.86,95.16a24,24,0,0,1-2.88-1c-1.41-.71-2.72-1.6-4.12-2.34a7.28,7.28,0,0,0-7.77.41c-.89.57-1.69,1.29-2.56,1.91a31.29,31.29,0,0,1-3.63,2.46,7.91,7.91,0,0,1-8.64-.5c-1.43-1-2.77-2.11-4.17-3.14-3.54-2.6-6.61-2.71-10.34-.39a19.69,19.69,0,0,1-2.21,1.37A11.39,11.39,0,0,1,27.31,95c-2.86.31-4.57-1.89-3.72-4.63.27-.87.65-1.7,1-2.54,2.74-6.6,3.69-13.57,4.06-20.63C29,60.48,29,53.74,29.4,47a26.7,26.7,0,0,1,6.93-17c9.86-10.75,26.22-9,33.73,3.6a29.68,29.68,0,0,1,4,13.54c.39,6.2.44,12.41.76,18.62A66.67,66.67,0,0,0,77.6,83.27a66.89,66.89,0,0,0,2.77,6.55C81.69,92.77,80.15,95.11,76.86,95.16Z"/><path class="cls-1" d="M94.36,66.8c0-.6-.07-1.1-.07-1.6-.06-7.13,0-14.25-.19-21.37-.31-11.22-4.1-21-12.19-29A39.89,39.89,0,0,0,57.45,3.29C40.09,1.52,26.22,7.94,16.29,22.34a36.17,36.17,0,0,0-6.27,20c-.16,7.71-.1,15.43-.13,23.15v1c-2.85.2-6.27-2.9-6.35-5.82-.09-3.29,0-6.57,0-9.86A5.16,5.16,0,0,1,6.2,46.48a2.22,2.22,0,0,0,1.15-2.19A43.12,43.12,0,0,1,12.9,22.82C19.67,11.2,29.74,4,42.8,1.07A44.7,44.7,0,0,1,89.64,19.89a42.5,42.5,0,0,1,6.81,20.38c.13,1.54.13,3.09.3,4.62a2,2,0,0,0,.75,1.28,6.37,6.37,0,0,1,3.19,5.61c0,2.73.06,5.46,0,8.19a7.47,7.47,0,0,1-5.33,6.72A6.49,6.49,0,0,1,94.36,66.8Z"/><path class="cls-1" d="M83.84,55.31c0-4.27,0-8.55,0-12.82,0-2.36,1.23-3.91,3.29-4.28a3.54,3.54,0,0,1,4.17,2.63,10.24,10.24,0,0,1,.29,2.47q.06,12.35.05,24.69c0,2.55-1.41,4.18-3.63,4.31a3.85,3.85,0,0,1-4.13-4.06c-.06-3.83,0-7.67,0-11.51V55.31Z"/><path class="cls-1" d="M20.12,55.07c0,4.11,0,8.22,0,12.34a7.86,7.86,0,0,1-.4,2.55,3.54,3.54,0,0,1-3.78,2.27A3.74,3.74,0,0,1,12.58,69a9.36,9.36,0,0,1-.08-1.3c0-8.42.06-16.85.07-25.27A4,4,0,0,1,14,39a3.73,3.73,0,0,1,3.91-.53A3.24,3.24,0,0,1,20,41.55c.09,2.44.07,4.9.08,7.35,0,2.06,0,4.11,0,6.17Z"/><ellipse class="cls-2" cx="62.34" cy="52.01" rx="4.08" ry="6.77"/><ellipse class="cls-2" cx="41.87" cy="52.01" rx="4.08" ry="6.77"/><path class="cls-2" d="M61.94,64.83c0,2.13-4.23,7.42-9.73,7.42S42.27,67.17,42.27,65s4.44,1.83,9.94,1.83S61.94,62.69,61.94,64.83Z"/><path class="cls-1" d="M24.12,118.1c.21.18.24.36.08.52a1.73,1.73,0,0,1-.69.41,6,6,0,0,1-1,.28,3.84,3.84,0,0,1-.71.1l-.86-.07-1.68,2.41c-.66.94-1.4,2-2.2,3s-1.69,2.25-2.64,3.47-1.95,2.44-3,3.68a1.3,1.3,0,0,1-.94.45,3.25,3.25,0,0,1-1.17-.06,1.63,1.63,0,0,1-.84-.47c-.18-.22-.13-.48.14-.78q.69-.76,1.44-1.68c.5-.61,1-1.28,1.54-2-.83-.56-1.72-1.18-2.68-1.87S7,124.12,6.09,123.36s-1.83-1.52-2.67-2.28a30.36,30.36,0,0,1-2.2-2.19l-.68-.65a1.85,1.85,0,0,1-.53-.8,1.06,1.06,0,0,1,.1-.59,1.38,1.38,0,0,1,.21-.38,25.69,25.69,0,0,1,2.91-3.15,48.53,48.53,0,0,1,3.71-3.17q2-1.55,4-2.88A37.74,37.74,0,0,1,14.83,105a2.81,2.81,0,0,1,1.18-.28,8.86,8.86,0,0,1,1.28,0,2.92,2.92,0,0,1,.92.23c.22.1.24.21.05.33-1.73,1.11-3.39,2.24-5,3.41s-3,2.28-4.37,3.33-2.46,2-3.43,2.8-1.67,1.44-2.11,1.86c.37.34,1,.86,1.78,1.55s1.72,1.44,2.69,2.24,1.95,1.6,3,2.41,1.87,1.5,2.61,2.08l2.19-3.09c.71-1,1.37-2,2-2.84-.46,0-1,0-1.51,0s-1.17,0-1.88.07A2.53,2.53,0,0,1,13.1,119a3.82,3.82,0,0,1-.81-.43,1.18,1.18,0,0,1-.43-.49c-.07-.16,0-.26.1-.31a16.4,16.4,0,0,1,3.08-.69,24.76,24.76,0,0,1,3.54-.23,16.4,16.4,0,0,1,3.25.33A5.49,5.49,0,0,1,24.12,118.1Z"/><path class="cls-1" d="M38.32,114.22c.14,0,.25,0,.33.17a1,1,0,0,1,.07.61,1.73,1.73,0,0,1-.31.74,1.77,1.77,0,0,1-.78.62,18.39,18.39,0,0,0-1.77,1c-.69.44-1.39.91-2.09,1.4s-1.38,1-2,1.46l-1.59,1.16c0,1.45,0,2.83.05,4.14a35.57,35.57,0,0,0,.26,3.62,1.31,1.31,0,0,0,.28.74.84.84,0,0,1,.2.57,1.25,1.25,0,0,1-.24.73,2.62,2.62,0,0,1-.9.7,3.23,3.23,0,0,1-.95.29,4.29,4.29,0,0,1-1.13,0,3.38,3.38,0,0,1-1-.22.71.71,0,0,1-.48-.49,1.83,1.83,0,0,1,0-.65,6.43,6.43,0,0,1,.12-.85c.06-.29.11-.58.16-.87s.08-.54.1-.74c0-.56.07-1.26.12-2.1s.11-1.73.16-2.65S27,121.83,27,121s0-1.54,0-2.1c0-1.73,0-3.67-.08-5.82s-.23-4.58-.51-7.31c0-.2.16-.39.56-.57a5.05,5.05,0,0,1,1.3-.36,5.24,5.24,0,0,1,1.3,0c.39,0,.58.18.58.38,0,2,0,4.19-.05,6.47s-.05,4.56-.05,6.87c.49-.27,1.08-.62,1.77-1s1.42-.81,2.18-1.23,1.52-.81,2.27-1.18A17.59,17.59,0,0,1,38.32,114.22Zm.38-8a.72.72,0,0,1,.49-.69,2.11,2.11,0,0,1,.79-.21,3.22,3.22,0,0,1,.7.19,5.83,5.83,0,0,1,.74.39,3.15,3.15,0,0,1,.63.5,1,1,0,0,1,.29.52,14,14,0,0,1,.11,2.28c0,.9-.08,1.84-.16,2.81s-.17,1.92-.26,2.84-.15,1.71-.17,2.36c0,.9-.06,2,0,3.15s0,2.45.09,3.74.07,2.57.1,3.83,0,2.38,0,3.38a.6.6,0,0,1-.28.46,2.52,2.52,0,0,1-.64.38,3.94,3.94,0,0,1-.73.25,1.59,1.59,0,0,1-.53.05,1.17,1.17,0,0,1-.71-.42,1.32,1.32,0,0,1-.3-.9c0-.92,0-1.76.07-2.53s0-1.51.05-2.25,0-1.49,0-2.25,0-1.6,0-2.53,0-2,0-3.1,0-2.46,0-4c0-.5,0-1.15,0-1.94s-.08-1.58-.14-2.4-.11-1.59-.16-2.31S38.7,106.58,38.7,106.21Z"/><path class="cls-1" d="M63.79,116.47a10.57,10.57,0,0,1,.38,1,7.45,7.45,0,0,1,.24,1.23,6.5,6.5,0,0,1,0,1.39,5.81,5.81,0,0,1-.4,1.49c-.3.69-.65,1.46-1.05,2.32s-.86,1.73-1.37,2.63-1,1.8-1.63,2.7a25.67,25.67,0,0,1-1.84,2.53,1.59,1.59,0,0,1-.91.5,5.1,5.1,0,0,1-1.37.14,5.69,5.69,0,0,1-1.39-.19,2.52,2.52,0,0,1-1-.45,23.56,23.56,0,0,1-2.34-2.29c-.82-.9-1.61-1.83-2.38-2.8s-1.46-1.93-2.11-2.88S45.44,122,45,121.32a4.91,4.91,0,0,1-.43-.95,2.1,2.1,0,0,1-.1-.77,2.76,2.76,0,0,1,.15-.76c.09-.26.22-.59.38-1a28.48,28.48,0,0,1,1.56-3.18c.67-1.2,1.42-2.4,2.24-3.61s1.68-2.35,2.59-3.44a19.82,19.82,0,0,1,2.69-2.72.8.8,0,0,1,.85-.14,1.75,1.75,0,0,1,.64.35,41.64,41.64,0,0,1,5.25,6.27A42.21,42.21,0,0,1,63.79,116.47ZM60.7,120.9a3.65,3.65,0,0,0,.26-1.85,4.83,4.83,0,0,0-.4-1.44,24,24,0,0,0-1.85-3.27,26,26,0,0,0-3.38-4,1.06,1.06,0,0,0-.38-.21.58.58,0,0,0-.55.07,16.61,16.61,0,0,0-1.67,1.61,22.91,22.91,0,0,0-1.57,1.94,22.56,22.56,0,0,0-1.34,2.06,14.62,14.62,0,0,0-.93,1.94c-.09.25-.18.46-.24.61a1.6,1.6,0,0,0-.13.41,1,1,0,0,0,.06.4,2.45,2.45,0,0,0,.27.55c.26.47.59,1,1,1.72s.86,1.39,1.33,2.11,1,1.44,1.44,2.13A21,21,0,0,0,54,127.42a3.72,3.72,0,0,0,1.57,1.28c.43.11.93-.22,1.51-1,.32-.44.66-1,1-1.54s.7-1.19,1-1.82.63-1.23.92-1.83S60.52,121.37,60.7,120.9Z"/><path class="cls-1" d="M78.06,104.79c.18-.13.32-.08.41.18a3.52,3.52,0,0,1,.18,1,6.8,6.8,0,0,1-.06,1.27,3.6,3.6,0,0,1-.22,1,4.43,4.43,0,0,1-1,1.14,18.71,18.71,0,0,1-1.7,1.35c-.64.47-1.32.93-2,1.39l-1.94,1.28c-.59.39-1.08.74-1.46,1s-.57.51-.57.62a3.65,3.65,0,0,0,.83.94,21.57,21.57,0,0,0,2.22,1.8,37.91,37.91,0,0,0,3.38,2.18A30.27,30.27,0,0,0,80.45,122a1.4,1.4,0,0,1,.62.59,2.47,2.47,0,0,1,.3,1,3.36,3.36,0,0,1-.09,1.09,2.18,2.18,0,0,1-.52,1,19.72,19.72,0,0,1-2.06,1.82,32,32,0,0,1-3,2.13,29.35,29.35,0,0,1-3.39,1.86,11.76,11.76,0,0,1-3.24,1,1.08,1.08,0,0,1-.88-.4,5,5,0,0,1-.89-1.09,4.55,4.55,0,0,1-.52-1.2c-.09-.38,0-.62.25-.74l1.66-.73,2-.86c.72-.3,1.43-.61,2.13-.92l1.91-.85c.57-.25,1-.48,1.39-.68s.54-.34.57-.43l-2.06-1.33-1.93-1.27c-.53-.34-1.07-.71-1.61-1.09l-1.54-1.11c-.49-.36-.94-.7-1.35-1a9.79,9.79,0,0,1-1-.91,8.55,8.55,0,0,1-.55-.7,2.55,2.55,0,0,1-.4-.83,2.4,2.4,0,0,1-.05-1,2.6,2.6,0,0,1,.49-1.11,13.26,13.26,0,0,1,2.13-2.28c1-.86,2-1.72,3.13-2.6s2.25-1.72,3.34-2.51Z"/><path class="cls-1" d="M92,105.45a4.62,4.62,0,0,1,1.32-.69,1.27,1.27,0,0,1,1.25.17,16.7,16.7,0,0,1,1.18,1.3c.55.66,1.16,1.43,1.83,2.32s1.36,1.84,2.06,2.86,1.34,2,1.91,2.86,1,1.66,1.35,2.32.47,1.08.4,1.26-.33.31-.7.3a3.85,3.85,0,0,1-1.22-.28,7.92,7.92,0,0,1-1.34-.66,3.06,3.06,0,0,1-1-.85c-.53-.73-1-1.46-1.42-2.16s-.78-1.33-1.11-1.87a11.17,11.17,0,0,0-.86-1.28c-.26-.31-.49-.45-.7-.4s-.12.31-.17.86-.08,1.2-.09,1.93,0,1.46,0,2.21v1.75a27.28,27.28,0,0,0,.2,2.93c.14,1.17.29,2.35.45,3.55s.29,2.33.37,3.38a10.48,10.48,0,0,1,0,2.37,2.6,2.6,0,0,1-.48,1,5.47,5.47,0,0,1-.9.9,4.78,4.78,0,0,1-1.15.64,3.27,3.27,0,0,1-1.18.24,2,2,0,0,1-.83-.24,2.78,2.78,0,0,1-.86-.68,2.67,2.67,0,0,1-.56-1,1.78,1.78,0,0,1,.11-1.23,12.13,12.13,0,0,0,.53-2.48c.15-1.12.29-2.37.42-3.76s.22-2.81.29-4.28.13-2.8.18-4,.07-2.2.07-3a7.28,7.28,0,0,0,0-1.16q-.32-.06-.81.51a17,17,0,0,0-1.13,1.45c-.41.59-.85,1.23-1.31,1.92s-.92,1.34-1.36,1.94a12.39,12.39,0,0,1-1.24,1.51c-.4.41-.73.6-1,.57a.89.89,0,0,1-.6-.33,3.76,3.76,0,0,1-.59-.76,3.88,3.88,0,0,1-.4-.86.71.71,0,0,1,0-.65l1-1.26c.4-.54.86-1.14,1.36-1.78s1.06-1.33,1.65-2.05,1.18-1.41,1.77-2.08,1.17-1.29,1.75-1.87A14.8,14.8,0,0,1,92,105.45Z"/></g></g></svg>