<?xml version="1.0" encoding="UTF-8"?>
<svg id="Layer_2" data-name="Layer 2" xmlns="http://www.w3.org/2000/svg" viewBox="0 0 72.53 72.81">
  <defs>
    <style>
      .cls-1 {
        fill: #06cc7b;
      }

      .cls-1, .cls-2 {
        stroke-width: 0px;
      }

      .cls-2 {
        fill: #fff;
      }
    </style>
  </defs>
  <g id="Capa_1" data-name="Capa 1">
    <path class="cls-1" d="M54.73,70.97c-.72-.25-1.47-.43-2.14-.77-1.05-.53-2.03-1.2-3.08-1.75-1.98-1.04-3.93-.89-5.79.3-.67.43-1.27.97-1.92,1.43-.89.63-1.74,1.34-2.7,1.84-2.19,1.14-4.39,1.04-6.45-.38-1.07-.74-2.07-1.57-3.11-2.34-2.64-1.94-4.93-2.02-7.71-.29-.55.34-1.06.77-1.65,1.03-.77.34-1.58.71-2.41.8-2.13.24-3.41-1.4-2.77-3.45.2-.65.48-1.27.74-1.89,2.05-4.92,2.76-10.12,3.03-15.38.26-5.01.27-10.03.56-15.04.27-4.79,1.88-9.12,5.17-12.7,7.36-8.02,19.56-6.69,25.16,2.68,1.86,3.12,2.73,6.54,2.95,10.1.29,4.62.33,9.26.57,13.89.22,4.43.72,8.83,2.1,13.07.55,1.67,1.34,3.27,2.07,4.88.98,2.2-.17,3.95-2.62,3.98Z"/>
    <g>
      <path class="cls-1" d="M67.78,49.82c-.02-.45-.05-.82-.05-1.2-.04-5.31,0-10.63-.14-15.94-.23-8.37-3.05-15.69-9.09-21.64-5.07-5-11.25-7.88-18.24-8.59-12.95-1.33-23.3,3.47-30.7,14.21-3.06,4.44-4.56,9.53-4.68,14.93-.12,5.75-.07,11.51-.1,17.27,0,.26,0,.52,0,.77-2.12.15-4.68-2.16-4.74-4.34-.07-2.45-.04-4.9,0-7.35.03-1.44.79-2.56,1.97-3.28.7-.42.85-.9.86-1.63.09-5.67,1.27-11.08,4.15-16.02C12.07,8.35,19.58,2.98,29.32.8c13.38-3,27.37,2.64,34.94,14.04,3.06,4.6,4.62,9.72,5.08,15.2.1,1.15.09,2.3.22,3.44.04.34.28.77.56.95,1.53,1,2.38,2.34,2.38,4.19,0,2.04.04,4.07.02,6.11-.03,2.21-1.83,4.46-3.97,5.01-.22.06-.45.05-.77.08Z"/>
      <path class="cls-1" d="M59.93,41.25c0-3.19,0-6.38,0-9.56,0-1.76.92-2.92,2.46-3.19,1.43-.26,2.76.55,3.11,1.97.15.6.22,1.22.22,1.84.03,6.14.04,12.28.04,18.42,0,1.9-1.06,3.11-2.71,3.21-1.73.1-3.05-1.14-3.08-3.02-.05-2.86-.02-5.73-.02-8.59,0-.35,0-.71,0-1.06h-.02Z"/>
      <path class="cls-1" d="M12.41,41.07c0,3.07.02,6.14-.01,9.2,0,.64-.08,1.31-.3,1.9-.44,1.19-1.62,1.84-2.82,1.69-1.32-.16-2.3-1.09-2.5-2.38-.05-.32-.06-.65-.06-.97.02-6.28.04-12.57.05-18.85,0-1.03.24-1.93,1.09-2.58.89-.68,1.87-.83,2.92-.4,1.01.42,1.5,1.25,1.54,2.29.07,1.83.05,3.66.06,5.48,0,1.53,0,3.07,0,4.6h.03Z"/>
    </g>
    <g>
      <ellipse class="cls-2" cx="43.9" cy="38.79" rx="3.04" ry="5.05"/>
      <ellipse class="cls-2" cx="28.63" cy="38.79" rx="3.04" ry="5.05"/>
    </g>
    <path class="cls-2" d="M43.6,48.35c0,1.59-3.15,5.54-7.26,5.54s-7.41-3.79-7.41-5.38,3.31,1.37,7.41,1.37,7.26-3.12,7.26-1.52Z"/>
  </g>
</svg>